<?xml version="1.0" standalone="no"?><!DOCTYPE svg PUBLIC "-//W3C//DTD SVG 1.1//EN" "http://www.w3.org/Graphics/SVG/1.1/DTD/svg11.dtd"><svg t="1747649594500" class="icon" viewBox="0 0 1024 1024" version="1.1" xmlns="http://www.w3.org/2000/svg" p-id="7909" xmlns:xlink="http://www.w3.org/1999/xlink" width="200" height="200"><path d="M511.880932 487.227834a192.652554 192.652554 0 0 1-190.509324-216.228082L351.853099 21.432537a23.813666 23.813666 0 0 1 23.813666-21.432299h272.190197a23.813666 23.813666 0 0 1 23.813665 21.432299l30.957765 249.567215a192.652554 192.652554 0 0 1-190.509324 216.228082zM397.575337 48.818252l-28.338262 228.134916a142.881993 142.881993 0 1 0 285.763986 0l-28.576398-228.134916zM489.019813 487.227834h48.818014v536.045611H489.019813z" p-id="7910"></path><path d="M440.439935 24.290177h48.818014v316.721751H440.439935zM537.837827 48.818252h48.818014v292.431813H537.837827zM562.127766 1023.987855H464.729874a23.813666 23.813666 0 0 1-23.813666-23.813665V706.551694a25.480622 25.480622 0 0 1 6.191553-15.955156l47.627332-47.627331a23.813666 23.813666 0 0 1 17.145839-7.382236 27.385715 27.385715 0 0 1 17.383975 6.905963l50.008698 47.627331a23.813666 23.813666 0 0 1 7.382236 17.622112v291.002993A23.813666 23.813666 0 0 1 562.127766 1023.987855z m-73.107953-47.627331h48.818014V716.79157l-25.242485-23.813666-23.813666 23.813666z" p-id="7911"></path></svg>