<?xml version="1.0" standalone="no"?><!DOCTYPE svg PUBLIC "-//W3C//DTD SVG 1.1//EN" "http://www.w3.org/Graphics/SVG/1.1/DTD/svg11.dtd"><svg t="1747649563656" class="icon" viewBox="0 0 1024 1024" version="1.1" xmlns="http://www.w3.org/2000/svg" p-id="5899" xmlns:xlink="http://www.w3.org/1999/xlink" width="200" height="200"><path d="M226.8 975.2c-22.7 0-45.4-2.7-67.4-8.2L22.7 933.2c-16-4-25.8-20.3-21.7-36.3 1.3-5.2 4-10 7.8-13.8l537.1-539.4L801.3 87.1c50.8-51 133.2-51.1 184.2-0.4l0.4 0.4c50.9 51.3 50.9 134.1 0 185.4L751.4 507.9l8.7 8.7c11.6 11.7 11.6 30.6 0 42.3L428.8 891.6c-26.6 26.7-58.3 47.8-93.2 62.1-34.5 14.2-71.5 21.6-108.8 21.5z m340.1-568.1L88.1 887.9l85.4 21.1c17.4 4.3 35.4 6.5 53.3 6.5 29.5 0 58.8-5.8 86.1-17 27.6-11.3 52.7-28 73.7-49.1L697 537.7l-35.8-35.9-185.7 186.5c-11.6 11.6-30.3 11.7-42 0.1l-0.1-0.1c-11.6-11.7-11.6-30.6 0-42.3l185.7-186.5-52.2-52.4z m326.6-298.6c-18.9-0.1-36.9 7.5-50.2 20.9L608.9 364.8l55.7 55.9 17.6 17.7 27.1 27.3 234.4-235.4c27.7-27.9 27.7-72.9 0-100.8-13.2-13.5-31.3-21-50.2-21zM391.3 760.4c-1.9 0-3.9-0.2-5.8-0.6-1.9-0.4-3.8-1-5.6-1.7-1.8-0.7-3.5-1.7-5.1-2.8-3.2-2.2-6-5-8.2-8.2-2.2-3.3-3.7-6.9-4.5-10.7-0.4-1.9-0.6-3.9-0.6-5.9 0-2 0.2-3.9 0.6-5.8 0.4-1.9 1-3.8 1.7-5.6 0.7-1.8 1.7-3.5 2.7-5.2 1.1-1.6 2.3-3.2 3.7-4.6 5.6-5.6 13.2-8.7 21.1-8.7 1.9 0 3.8 0.2 5.7 0.6 1.9 0.4 3.8 1 5.6 1.7 1.8 0.7 3.5 1.7 5.1 2.8 1.6 1.1 3.1 2.3 4.5 3.7 1.4 1.4 2.6 2.9 3.7 4.6 1.1 1.6 2 3.4 2.7 5.2 0.8 1.8 1.3 3.7 1.7 5.6 0.4 1.9 0.6 3.9 0.6 5.8 0 2-0.2 3.9-0.6 5.9-0.4 1.9-0.9 3.8-1.7 5.6-0.8 1.8-1.7 3.5-2.8 5.1-1.1 1.6-2.3 3.2-3.7 4.5-1.4 1.4-2.9 2.6-4.5 3.7s-3.3 2-5.1 2.8c-1.8 0.7-3.7 1.3-5.6 1.7-1.7 0.4-3.7 0.5-5.6 0.5z" fill="#333333" p-id="5900"></path></svg>